<?xml version="1.0" standalone="no"?>
<!DOCTYPE svg PUBLIC "-//W3C//DTD SVG 20010904//EN"
 "http://www.w3.org/TR/2001/REC-SVG-20010904/DTD/svg10.dtd">
<svg version="1.0" xmlns="http://www.w3.org/2000/svg"
 width="204.000000pt" height="195.000000pt" viewBox="0 0 204.000000 195.000000"
 preserveAspectRatio="xMidYMid meet">
<metadata>
Created by potrace 1.10, written by Peter Selinger 2001-2011
</metadata>
<g transform="translate(0.000000,195.000000) scale(0.100000,-0.100000)"
fill="#000000" stroke="none">
<path d="M282 1879 c-24 -16 -42 -20 -68 -16 -20 3 -46 2 -59 -3 -34 -13 -113
-93 -120 -123 -17 -65 12 -253 42 -270 21 -13 15 -36 -11 -43 -27 -6 -35 -40
-28 -114 3 -33 9 -44 31 -53 36 -16 41 -25 41 -77 0 -40 -4 -48 -35 -69 -34
-23 -35 -25 -35 -92 0 -64 2 -69 22 -69 12 0 31 8 42 18 20 17 67 35 166 62
25 7 71 21 103 31 31 11 65 19 75 19 38 0 49 29 44 116 l-4 80 -39 17 c-22 9
-47 17 -57 17 -9 1 -28 7 -42 15 -14 8 -37 14 -52 15 -15 0 -30 5 -33 10 -3 6
-14 10 -24 10 -29 0 -124 32 -141 47 -26 24 3 34 99 34 l91 0 0 98 c0 76 -3
101 -15 111 -24 20 -61 -2 -68 -39 -5 -24 -12 -31 -30 -31 -13 0 -28 5 -35 12
-17 17 -15 79 4 106 14 20 14 24 0 44 -22 30 -20 55 4 63 22 7 55 -8 63 -28 3
-7 31 -19 63 -26 63 -14 95 -27 106 -45 13 -19 9 -71 -7 -92 -17 -22 -19 -47
-6 -72 6 -9 12 -30 16 -45 12 -57 51 -44 87 27 27 52 30 215 5 262 -21 40 -77
90 -109 98 -14 3 -32 8 -40 11 -7 3 -28 -5 -46 -16z m35 -676 c40 -23 44 -28
29 -38 -9 -7 -44 -16 -78 -19 -52 -6 -64 -5 -74 9 -7 9 -11 23 -8 31 2 8 6 21
9 29 7 24 71 18 122 -12z"/>
<path d="M566 1870 c-1 -3 -3 -179 -5 -393 -2 -417 -2 -415 48 -387 12 6 58
13 103 17 46 3 91 10 100 14 9 5 53 11 97 13 84 4 101 9 101 29 0 7 10 25 23
40 26 33 52 29 61 -8 7 -28 67 -45 90 -26 8 7 25 9 40 5 23 -5 26 -3 26 19 0
14 5 29 10 32 6 3 10 13 10 21 0 8 -4 14 -10 14 -5 0 -10 -7 -10 -15 0 -8 -4
-15 -10 -15 -5 0 -10 14 -10 31 0 36 -17 72 -31 64 -5 -4 -9 -22 -9 -41 0 -28
-3 -35 -17 -32 -13 3 -18 13 -17 38 0 19 -6 39 -13 43 -32 19 -6 67 36 67 13
0 32 7 42 16 9 8 28 16 42 18 14 1 33 8 41 15 33 28 170 51 189 32 13 -13 54
-15 61 -2 9 14 81 -25 121 -66 32 -33 43 -38 100 -44 49 -5 73 -13 106 -37 23
-17 45 -29 49 -27 5 3 7 132 7 287 l-2 283 -683 0 c-376 0 -685 -2 -686 -5z
m959 -142 c39 0 104 3 145 7 47 4 85 3 103 -4 l28 -11 -3 -92 c-3 -91 -3 -93
-29 -96 -27 -3 -147 49 -161 70 -6 10 -11 9 -19 -4 -12 -22 -35 -23 -43 -3 -8
22 -44 18 -51 -5 -9 -27 -45 -27 -45 0 0 20 -4 21 -62 14 -40 -4 -76 -15 -100
-30 -21 -13 -42 -24 -47 -24 -6 0 -15 -9 -21 -20 -7 -13 -18 -19 -28 -16 -24
8 -110 -58 -117 -89 -3 -14 -7 -36 -10 -50 -3 -15 -16 -30 -30 -35 -14 -5 -25
-17 -25 -27 -1 -26 -47 -58 -64 -43 -10 8 -32 7 -84 -5 -38 -9 -96 -15 -128
-13 -54 3 -59 5 -62 28 -2 14 -9 31 -14 37 -7 9 -6 20 4 35 11 18 14 58 14
176 -1 116 2 152 11 152 7 0 13 9 13 20 0 12 8 21 23 24 12 3 31 7 42 10 11 3
171 2 355 -1 184 -3 367 -6 405 -5z"/>
<path d="M1276 1362 c-16 -18 -15 -21 3 -43 16 -20 21 -21 35 -10 21 18 20 34
-2 55 -18 15 -20 15 -36 -2z"/>
<path d="M1303 1226 l-22 -23 30 -36 c41 -49 59 -48 59 3 0 27 -7 47 -20 60
-24 24 -20 25 -47 -4z"/>
<path d="M1401 1196 c-15 -18 -7 -50 20 -77 24 -24 36 -24 49 0 14 27 13 41
-4 41 -8 0 -23 12 -33 26 -17 23 -21 24 -32 10z"/>
<path d="M1550 1164 c0 -15 8 -32 17 -39 15 -11 15 -15 4 -29 -12 -14 -11 -16
7 -16 35 0 45 65 14 93 -27 24 -42 21 -42 -9z"/>
<path d="M700 949 c-19 -11 -41 -17 -48 -14 -8 3 -25 8 -38 11 -40 10 -50 -35
-49 -230 l0 -168 195 0 c107 0 232 -5 278 -10 98 -13 120 -3 84 35 -16 17 -21
34 -19 62 1 29 -2 40 -14 43 -11 2 -19 -6 -23 -22 -7 -27 -36 -49 -52 -38 -5
4 -15 17 -22 30 -11 20 -11 27 2 48 23 34 70 56 98 45 13 -4 35 -11 50 -15 23
-5 26 -4 21 11 -4 10 -18 30 -32 44 -14 15 -37 41 -50 58 -14 17 -32 33 -41
36 -9 3 -23 20 -31 38 -17 39 -62 59 -84 36 -14 -13 -11 -18 25 -44 69 -51
102 -86 96 -102 -8 -19 -63 -8 -92 19 -12 11 -28 18 -35 17 -8 -2 -31 3 -51
11 -29 11 -38 20 -38 38 0 16 -8 26 -29 33 -16 6 -31 19 -34 30 -6 23 -21 23
-67 -2z m206 -177 c19 -12 54 -76 54 -99 0 -34 -11 -53 -30 -53 -19 0 -30 19
-30 54 0 12 -5 27 -12 34 -25 25 -36 12 -45 -50 -6 -47 -12 -64 -25 -66 -12
-2 -19 5 -24 25 -4 15 -13 36 -21 45 -24 27 -12 61 29 80 20 10 39 22 43 28 7
12 45 13 61 2z"/>
<path d="M1335 950 c-3 -5 -2 -26 4 -46 6 -22 6 -45 1 -60 -9 -21 -13 -23 -31
-14 -22 13 -49 -1 -49 -26 0 -44 90 -124 140 -124 25 0 42 -37 29 -62 -5 -10
-22 -20 -37 -24 -15 -3 -44 -12 -65 -20 -20 -8 -51 -14 -67 -14 -16 0 -31 -4
-34 -9 -6 -10 90 -25 104 -16 6 3 58 5 117 5 60 -1 142 -1 183 1 111 4 179 2
235 -6 40 -6 53 -4 64 9 16 19 7 51 -11 40 -16 -10 -65 -6 -90 7 -25 14 -9 34
34 43 72 14 100 63 59 100 -24 22 -37 15 -44 -24 -5 -24 -12 -30 -31 -30 -16
0 -27 7 -31 20 -4 11 -17 28 -31 36 -16 11 -24 26 -24 45 0 25 -4 28 -37 31
-28 2 -41 9 -50 28 -19 39 -38 31 -37 -15 0 -29 8 -48 27 -69 29 -31 34 -61
15 -100 -13 -29 -54 -60 -68 -51 -5 3 -18 1 -29 -4 -15 -8 -25 -6 -45 10 -16
12 -35 19 -46 16 -26 -7 -35 9 -13 22 17 9 17 11 -1 43 -12 20 -20 52 -21 84
0 41 -7 62 -33 101 -57 86 -72 98 -87 73z"/>
<path d="M237 923 l-198 -3 3 -68 3 -67 60 -5 c52 -4 60 -8 60 -25 0 -12 -8
-21 -20 -23 -11 -2 -38 -15 -60 -30 -38 -26 -40 -32 -49 -95 -11 -89 -6 -102
33 -79 110 65 140 82 148 82 5 0 17 -14 27 -31 22 -37 51 -49 122 -49 48 0 59
4 89 33 l34 32 2 155 c2 195 4 180 -28 178 -16 -2 -117 -4 -226 -5z m151 -185
c2 -28 -2 -40 -20 -52 -46 -33 -83 -14 -103 53 -10 32 8 42 70 39 50 -3 50 -3
53 -40z"/>
<path d="M1831 479 c-14 -5 -47 -9 -74 -8 -58 3 -57 4 -93 -111 -33 -109 -56
-172 -65 -185 -3 -5 -10 -26 -14 -45 -9 -40 -34 -79 -52 -80 -17 0 -19 26 -13
224 3 112 1 184 -5 192 -8 10 -26 12 -74 6 l-63 -7 -2 -220 -1 -220 168 -2
168 -3 14 34 c14 32 16 33 67 31 47 -2 54 -5 68 -31 16 -28 20 -29 98 -32 66
-2 82 0 82 11 0 8 -9 17 -20 20 -12 3 -20 14 -20 27 0 12 -6 36 -14 53 -14 33
-31 95 -45 160 -5 21 -14 44 -20 50 -6 6 -11 21 -11 33 0 25 -38 114 -48 113
-4 0 -18 -5 -31 -10z m-10 -192 c4 -15 9 -47 11 -70 l3 -42 -40 0 -40 0 -3 52
c-2 29 2 62 8 73 16 30 52 22 61 -13z"/>
<path d="M53 471 c-4 -3 -10 -89 -11 -191 -2 -102 -4 -201 -5 -220 l-2 -35
140 -2 c108 -1 145 1 162 13 12 7 28 14 36 14 19 0 51 37 73 84 23 51 24 188
1 233 -23 43 -81 91 -119 97 -54 8 -266 14 -275 7z m247 -141 c53 -55 29 -145
-43 -164 -15 -3 -27 -11 -27 -16 0 -16 -27 -11 -34 6 -8 21 -8 189 1 197 3 4
21 7 40 7 24 0 42 -8 63 -30z"/>
<path d="M510 471 c-1 -3 -2 -106 -3 -227 l-3 -222 145 0 c80 0 154 4 163 9
13 7 18 22 18 49 0 51 -21 63 -98 55 -42 -5 -62 -3 -76 8 -19 14 -19 15 -2 42
16 25 22 27 65 22 63 -6 71 -2 71 44 l0 39 -53 0 c-40 0 -59 5 -76 21 l-22 21
22 24 c18 19 33 24 93 26 l71 3 3 38 c2 24 -1 39 -10 41 -23 8 -308 14 -308 7z"/>
<path d="M920 471 l-55 -6 -2 -120 c-1 -66 -4 -164 -6 -217 -2 -75 0 -99 11
-103 7 -3 43 -5 79 -5 l66 0 -7 104 c-5 76 -3 106 5 112 14 8 59 -43 59 -67 0
-9 6 -22 14 -28 8 -7 17 -23 20 -36 4 -14 11 -25 16 -25 6 0 10 -6 10 -14 0
-33 30 -46 105 -46 41 0 76 3 78 7 2 5 0 70 -6 146 -6 92 -6 162 0 210 13 93
9 99 -76 95 l-66 -3 4 -92 c2 -78 1 -94 -13 -99 -20 -8 -48 25 -94 110 -34 62
-57 87 -76 84 -6 -1 -36 -4 -66 -7z"/>
</g>
</svg>
